SplineFontDB: 3.2
FontName: Nika_Celec_projektni_zadatak1
FullName: Nika_Celec_projektni_zadatak1
FamilyName: Nika_Celec_projektni_zadatak1
Weight: Regular
Copyright: Copyright (c) 2025, nikac
UComments: "2025-3-22: Created with FontForge (http://fontforge.org)"
Version: 001.000
ItalicAngle: 0
UnderlinePosition: -100
UnderlineWidth: 50
Ascent: 800
Descent: 200
InvalidEm: 0
LayerCount: 4
Layer: 0 0 "Stra+AX4A-nji" 1
Layer: 1 0 "Prednji" 0
Layer: 2 0 "Stra+AX4A-nji 2" 1
Layer: 3 0 "Stra+AX4A-nji 3" 1
XUID: [1021 817 2055838226 12989]
StyleMap: 0x0000
FSType: 0
OS2Version: 0
OS2_WeightWidthSlopeOnly: 0
OS2_UseTypoMetrics: 1
CreationTime: 1742671401
ModificationTime: 1750096549
OS2TypoAscent: 0
OS2TypoAOffset: 1
OS2TypoDescent: 0
OS2TypoDOffset: 1
OS2TypoLinegap: 90
OS2WinAscent: 0
OS2WinAOffset: 1
OS2WinDescent: 0
OS2WinDOffset: 1
HheadAscent: 0
HheadAOffset: 1
HheadDescent: 0
HheadDOffset: 1
MarkAttachClasses: 1
DEI: 91125
Encoding: iso8859-2
UnicodeInterp: none
NameList: AGL For New Fonts
DisplaySize: -48
AntiAlias: 1
FitToEm: 0
WinInfo: 0 51 16
BeginPrivate: 0
EndPrivate
BeginChars: 256 94

StartChar: A
Encoding: 65 65 0
Width: 714
Flags: HW
LayerCount: 4
Fore
SplineSet
304 402 m 1
 354.163085938 423.384765625 376 420 415 396 c 1
 409 446 392 511 362 535 c 1
 343.86328125 517.333007812 334.720703125 498.478515625 327 482 c 0
 320.362304688 467.83203125 306.301757812 421.49609375 304 402 c 1
4 131 m 1
 8 236 140 602 298 748 c 1
 334 785 381.501735223 781.811661343 412 755 c 0
 594 595 714 271 714 119 c 0
 714 70 696 7 604 -3 c 1
 544 0 508.672037512 40.1239671835 493 99 c 0
 456 238 411.40625 298.583007812 408 287 c 1
 386 272.294921875 325.497070312 269.368164062 307 292 c 0
 295.990234375 305.470703125 241.087890625 179.502929688 220 104 c 1
 193 26 168 0 104 -3 c 1
 35 0 0 82 4 131 c 1
EndSplineSet
Validated: 33
EndChar

StartChar: B
Encoding: 66 66 1
Width: 720
Flags: HW
LayerCount: 4
Fore
SplineSet
386 652 m 1
 408 631 412 611 392 577 c 1
 449 569 465 581 477 608 c 1
 476 670 426 667 386 652 c 1
407 313 m 1
 434 295 428 241 406 219 c 1
 458 195 521 200 517 261 c 1
 512 327 448 329 407 313 c 1
176 42 m 1
 84 81 14 46 5 141 c 1
 3 226 85 305 174 230 c 1
 197 326 204 470 189 543 c 1
 106 509 12 535 11 617 c 1
 18.375 671.494140625 62.59765625 746.041992188 194 723 c 1
 358 811 460 811 540 770 c 1
 628 732 645 665 655 598 c 1
 664 495 613 468 584 453 c 1
 556 439 534 435 464 435 c 1
 508 431 561 421 610 390 c 1
 650 370 724 305 714 187 c 1
 698 71 605.890625 42.134765625 589 32 c 0
 559 14 347 -25 176 42 c 1
EndSplineSet
Validated: 33
EndChar

StartChar: N
Encoding: 78 78 2
Width: 741
Flags: HW
LayerCount: 4
Fore
SplineSet
583 8 m 1024
151 1 m 1
 99 0 71.262837037 38.3037574838 51 100 c 0
 32.884765625 155.157226562 10.890625 546.489257812 80 688 c 0
 101 731 111 766 169 801 c 1
 252 806 270.180664062 779.961914062 269 782 c 1
 454 665 401 432 483 308 c 1
 458.279296875 407.666992188 466.024414062 608.333007812 496 708 c 1
 519 772 551 798 589 802 c 1
 677 783 676 745 694 703 c 1
 732 585 720 249 687 109 c 1
 666 57 653.94921875 24.283203125 582 9 c 1
 477 -9 371 70 253 321 c 1
 269.400390625 218.14453125 274.83984375 153.323242188 262 93 c 1
 251 28 228.916015625 -0.0771484375 151 1 c 1
EndSplineSet
Validated: 33
EndChar

StartChar: i
Encoding: 105 105 3
Width: 248
Flags: HW
LayerCount: 4
Fore
SplineSet
117 406 m 5
 79 396 35 441.40625 35 472 c 4
 35 542 121 558.600585938 121 552 c 5
 170.638671875 544.76953125 192.440429688 514.514648438 197 470 c 5
 193 422 157 400 117 406 c 5
119 366 m 1
 60.0439453125 363.672851562 27.1455078125 296.385742188 21 280 c 0
 -0.22265625 223.415039062 8.9111328125 101.588867188 14 112 c 1
 22 34 62 10 108 0 c 1
 194 0 226 34 240 106 c 1
 243.752929688 154.122070312 253.206054688 165.288085938 235 270 c 1
 221.282226562 315.659179688 181.1953125 369.5078125 119 366 c 1
EndSplineSet
Validated: 41
EndChar

StartChar: k
Encoding: 107 107 4
Width: 450
Flags: HW
LayerCount: 4
Fore
SplineSet
101 0 m 1
 33 0 24.9993492846 47.999865373 13 106 c 0
 5.2587890625 143.41796875 0 655 22 673 c 0
 22 673 41 808 127 794 c 1
 179.924804688 769.333007812 191 721 198 687 c 5
 213 613 131 327 199 304 c 1
 272 333 202 476 294 458 c 1
 330 458 342 442 376 430 c 1
 405 415 439 365 368 303 c 1
 368 303 220.081054688 168.361328125 193 220 c 0
 165.81640625 271.834960938 381 237 439 102 c 0
 454.375 66.2138671875 434 0 375 0 c 0
 269 0 259 102 179 120 c 1
 189 76 169 0 101 0 c 1
EndSplineSet
Validated: 37
EndChar

StartChar: a
Encoding: 97 97 5
Width: 556
Flags: HW
LayerCount: 4
Fore
SplineSet
194 119 m 1
 134 121 130 151 114 177 c 1
 114 177 93 195 108 245 c 1
 120.390625 268.59375 140.319335938 287.276367188 174 297 c 1
 252.666992188 300.19140625 256.254882812 271.598632812 274 249 c 1
 278.204101562 221.000976562 288.577148438 183 274 173 c 1
 268.375 151.888671875 258 119 194 119 c 1
223 400 m 1
 146.77734375 394.813476562 74.8408203125 373.827148438 25 296 c 1
 -27 194 22.029296875 99.833984375 23 98 c 0
 41 64 87 0 219 2 c 1
 349 -3 386.630859375 115.0625 386 114 c 1
 379 43 417 0 447 2 c 1
 501 -5 511 15 525 34 c 1
 565 95 572 208 494 408 c 1
 464 414 432 416 394 408 c 1
 306 396 392.487304688 313.575195312 356 324 c 0
 342 328 337 398 223 400 c 1
EndSplineSet
Validated: 37
EndChar

StartChar: Cacute
Encoding: 198 262 6
Width: 1000
Flags: H
LayerCount: 4
Fore
SplineSet
650 774 m 1
 592 802 528.092913226 749.940897977 494 706 c 1
 522.510968301 700.3180737 486 688 594 704 c 1
 642.144256788 731.371308001 662 750 650 774 c 1
778 202 m 5
 802 128 698 4 562 4 c 1
 238 -26 146 132 140 298 c 1
 146 516 350 660 610 662 c 1
 684 636 762 632 790 504 c 1
 798.997070312 437.678710938 564 364 604 444 c 0
 660.664379313 557.328758626 472.7578125 464.76171875 418 354 c 1
 362 240 498 72 578 194 c 1
 594 248 740 276 778 202 c 5
EndSplineSet
Validated: 41
EndChar

StartChar: Ccaron
Encoding: 200 268 7
Width: 590
Flags: HW
LayerCount: 4
Fore
SplineSet
241 896 m 5
 216.122070312 869.75 302 825 350 824 c 5
 402 837 464 871 436 899 c 5
 413 926 374.15234375 893.385742188 346 854 c 5
 322 898 258 924 241 896 c 5
589 211 m 1
 556 43 391.149414062 1.02734375 341 0 c 0
 97 -5 34.7314453125 137.272460938 15 189 c 0
 -22 286 37 530 111 637 c 1
 241 822 423 827 527 749 c 1
 588 704 589 574 589 574 c 1
 561 519 410 511 422 604 c 1
 328 669 226 512 195 405 c 1
 124 171 365 149 396 219 c 1
 379 339 586 380 589 211 c 1
EndSplineSet
Validated: 524329
EndChar

StartChar: e
Encoding: 101 101 8
Width: 470
Flags: HW
LayerCount: 4
Fore
SplineSet
151 253 m 1
 188 264 270 293 288 319 c 1
 277 352 238 375 200 356 c 1
 173 340 149 310 151 253 c 1
461 215 m 1
 480 174 474 17 254 0 c 0
 148.928710938 -8.119140625 93 28 36 102 c 1
 0 174 -21 294 37 368 c 1
 104 455 227.275390625 486.77734375 313 449 c 0
 372 423 387.659179688 370.232421875 407 324 c 1
 349 220 231 176 135 176 c 1
 207 66 324 92 345 189 c 1
 357 246 433 265 461 215 c 1
EndSplineSet
Validated: 33
EndChar

StartChar: l
Encoding: 108 108 9
Width: 195
Flags: HW
LayerCount: 4
Fore
SplineSet
93 733 m 1
 39 723 32 682 23 596 c 1
 23 596 18 155 18 153 c 0
 18 91 69 1 120 1 c 0
 128 1 167 3 167 3 c 1
 228 1 123.094726562 52.177734375 125 124 c 0
 127.0078125 199.684570312 151.138671875 520.0546875 151 524 c 1
 156 702 150 721 93 733 c 1
EndSplineSet
Validated: 41
EndChar

StartChar: Z
Encoding: 90 90 10
Width: 629
Flags: HW
LayerCount: 4
Fore
SplineSet
627 86 m 1
 622 35 586 0 555 0 c 1
 68 0 l 17
 21 18 0 59 2 100 c 1
 5 218 392 575 365 600 c 1
 206.412109375 589.30078125 94 580 32 638 c 1
 -16.3271484375 680 5.0966796875 734 50 776 c 1
 175 838 236 738 560 801 c 1
 596 802 632 712 612 640 c 1
 580 538 272 218 341 210 c 1
 452.063476562 181.12109375 619 318 627 86 c 1
EndSplineSet
Validated: 33
EndChar

StartChar: C
Encoding: 67 67 11
Width: 574
Flags: HW
LayerCount: 4
Fore
SplineSet
555 694 m 1
 495 823 287 843 151 711 c 1
 19 569 -59 180 69 76 c 1
 199.602539062 -30.30859375 375 -18 497 98 c 5
 523 136 516 142 506 179 c 1
 493 208 441 244 353 172 c 1
 293 114 194 114 157 172 c 1
 80 302 190 541 254 613 c 1
 322 699 416 695 413 612 c 1
 413 584 474.127929688 575.182617188 507 590 c 1
 545 612 581.606445312 628.573242188 555 694 c 1
EndSplineSet
Validated: 41
EndChar

StartChar: c
Encoding: 99 99 12
Width: 505
Flags: HW
LayerCount: 4
Fore
SplineSet
489 405 m 1
 444 502 251.729492188 576.146484375 67 432 c 1
 -27.5380859375 309.456054688 -13 172 66 90 c 1
 178 -45 452 -13 499 113 c 1
 511 163 496 178 478 197 c 1
 454 233 369 235 364 199 c 1
 344 106 206 138 185 188 c 1
 163 229 168 267 193 329 c 1
 229 381 308 406 349 325 c 1
 362 275 434 294 465 321 c 1
 512 361 494 386 489 405 c 1
EndSplineSet
Validated: 41
EndChar

StartChar: D
Encoding: 68 68 13
Width: 816
Flags: HW
LayerCount: 4
Fore
SplineSet
356 480 m 1
 393 414 377 365 360 336 c 1
 442 304 534 330 520 418 c 1
 503.392578125 489.583007812 446 534 356 480 c 1
129 236 m 1
 177 215 193 603 151 583 c 1
 -13 496 -47 665 81 715 c 5
 421 866 594 795 703 651 c 1
 783 551 810 407 810 379 c 1
 817 227 760 155 720 109 c 1
 613 -24 200 -61 35 134 c 1
 -29 217 55 293 129 236 c 1
EndSplineSet
Validated: 33
EndChar

StartChar: E
Encoding: 69 69 14
Width: 638
Flags: HW
LayerCount: 4
Fore
SplineSet
607 74 m 1
 551 -32 56.51953125 -18.2802734375 33 72 c 1
 3 106 2 578 74 728 c 1
 164 812 522 828 614 744 c 1
 640 700 636 668 594 612 c 1
 554 566 492 560 276 592 c 1
 294 572 276 470 258 452 c 5
 348 472 414 500 454 454 c 5
 484.099609375 430.166992188 492 372 464 332 c 5
 440 304 391.579101562 300.486328125 262 344 c 5
 274 320 276.953125 245.293945312 245 194 c 1
 446.346679688 249.916015625 561.354492188 247.786132812 603 210 c 1
 656.868164062 152.618164062 619.731445312 86.39453125 607 74 c 1
EndSplineSet
Validated: 33
EndChar

StartChar: F
Encoding: 70 70 15
Width: 605
Flags: HW
LayerCount: 4
Fore
SplineSet
160 0 m 1
 62 -2 44 50 30 100 c 1
 6 200 -12 583 34 713 c 1
 102.60546875 843.377929688 514 801 582 727 c 1
 620 693 605 626 548 591 c 1
 458 556 221 653 210 628 c 1
 219.569335938 592.776367188 235.98046875 576.018554688 208 520 c 1
 253.825195312 531.53125 380 535 425 493 c 1
 466 451 436 379 402 371 c 1
 358 353 266.909179688 366.93359375 214 378 c 1
 196 334 212 198 240 114 c 1
 262 24 210 -2 160 0 c 1
EndSplineSet
Validated: 33
EndChar

StartChar: G
Encoding: 71 71 16
Width: 742
Flags: HW
LayerCount: 4
Fore
SplineSet
716 154 m 1
 645 -25 265 -65 82 108 c 1
 -58 242 17 533 119 659 c 1
 217 773 569 895 671 683 c 1
 705 615 720.725585938 557.4453125 667 555 c 1
 596 541 580.616210938 548.891601562 519 555 c 1
 501 667 329 623 277 559 c 1
 239 509 172 312 234 238 c 1
 302 170 465 162 529 251 c 1
 547.361328125 288.552734375 566.939453125 327.038085938 531 323 c 1
 508.979492188 307.452148438 485.552734375 298.33984375 453 331 c 1
 433.973632812 358.674804688 440.298828125 377.899414062 453 395 c 1
 597 393 627 405 685 401 c 1
 757 365 746 240 716 154 c 1
EndSplineSet
Validated: 33
EndChar

StartChar: H
Encoding: 72 72 17
Width: 684
Flags: HW
LayerCount: 4
Fore
SplineSet
107 0 m 1
 59 24 37 56 17 146 c 1
 -4.2822265625 271.877929688 -3 527 51 671 c 1
 84.6591796875 740.000976562 109 799 177 799 c 1
 251 793 261 713 257 655 c 1
 253.997070312 592.01171875 186.7578125 448.1015625 245 449 c 1
 346.951171875 504.240234375 368.922851562 481.224609375 450 454 c 1
 516.435546875 425.303710938 444 612 458 668 c 1
 462 712 480 776 554 786 c 1
 592 776 636 766 666 668 c 1
 680 590 688 347 650 179 c 1
 644 129 606 3 550 3 c 0
 436 3 428 55 444 165 c 1
 452.076171875 206.532226562 526.057617188 350.282226562 448 312 c 1
 353.98828125 262.637695312 319.120117188 283.953125 241 331 c 1
 209 341 233.28515625 205.974609375 231 164 c 1
 231 36 201 0 107 0 c 1
EndSplineSet
Validated: 33
EndChar

StartChar: I
Encoding: 73 73 18
Width: 438
Flags: HW
LayerCount: 4
Fore
SplineSet
331 90 m 1
 303 -12 195 -46 149 82 c 1
 103 194 97 620 147 738 c 1
 179 802 249 830 301 752 c 1
 363 682 371.327148438 218.522460938 331 90 c 1
EndSplineSet
Validated: 33
EndChar

StartChar: J
Encoding: 74 74 19
Width: 495
Flags: HW
LayerCount: 4
Fore
SplineSet
431 126 m 1
 327 -100 -29 20 17 170 c 1
 49 228 159 232 161 190 c 1
 143 102 253 100 291 144 c 1
 313 210 346.3671875 569.983398438 239 640 c 1
 197 662 103.265625 594.809570312 63 606 c 1
 14.8642578125 625.10546875 -7.4609375 659.591796875 7 716 c 1
 41.9912109375 766.651367188 64.1025390625 759.021484375 89 764 c 1
 89 764 321 804 465 766 c 1
 509 740 495 676 409 646 c 1
 427 600 491 268 431 126 c 1
EndSplineSet
Validated: 33
EndChar

StartChar: K
Encoding: 75 75 20
Width: 606
Flags: HW
LayerCount: 4
Fore
SplineSet
227 56 m 1
 139 -50 65 20 41 68 c 1
 -17 150 1 603 63 741 c 1
 139 831 199 809 241 745 c 1
 263 709 266.276367188 624.806640625 235 533 c 1
 326.557617188 597.63671875 381.982421875 855.704101562 579 749 c 1
 655 655 515 387 339 395 c 1
 424.637695312 356.926757812 487 325 539 230 c 1
 619 90 613 68 585 30 c 1
 521 -14 430.359375 -18.4580078125 379 30 c 1
 323 98 377 224 251 294 c 1
 271 154 253 96 227 56 c 1
EndSplineSet
Validated: 33
EndChar

StartChar: L
Encoding: 76 76 21
Width: 608
Flags: HW
LayerCount: 4
Fore
SplineSet
39 86 m 1
 -25 188 3.2822265625 543.96484375 60 741 c 1
 96 817 246 817 266 751 c 1
 308 673 293 306 245 228 c 1
 238.499023438 263.10546875 504.838867188 303.202148438 581 208 c 0
 629 148 594.90234375 62.244140625 591 68 c 1
 547 -4 143 -48 39 86 c 1
EndSplineSet
Validated: 37
EndChar

StartChar: M
Encoding: 77 77 22
Width: 796
Flags: HW
LayerCount: 4
Fore
SplineSet
269 60 m 1
 231 -32 69 -24 39 64 c 1
 -30.5859375 239.947265625 24 621 52 719 c 1
 92 799 212 807 284 731 c 1
 344 673 351.206054688 606.708984375 382 547 c 5
 406 603 406 669 512 773 c 1
 550 807 612 815 694 753 c 1
 720 721 873.797851562 237.123046875 741 52 c 1
 692.579101562 -0.404296875 643 -40 545 44 c 1
 495 150 552.529296875 246.171875 555 346 c 1
 522.453125 286.431640625 485 178 379 190 c 1
 317.083007812 194.325195312 274.397460938 250.609375 223 340 c 1
 258.33203125 175.895507812 260.004882812 117.215820312 269 60 c 1
EndSplineSet
Validated: 33
EndChar

StartChar: Zcaron
Encoding: 174 381 23
Width: 625
Flags: HW
LayerCount: 4
Fore
SplineSet
242 908 m 5
 234.803710938 882.1796875 298 798 334 810 c 5
 392 814 410.666992188 864.665039062 428 898 c 5
 416.616210938 916.586914062 402 930 342 862 c 5
 288 918 258 926 242 908 c 5
378 0 m 1
 139 -6 65 -2 16 69 c 1
 -90 247 218.313476562 439.151367188 315 568 c 1
 297 628 117 541 23 623 c 1
 -21 655 5 699 25 721 c 1
 137 823 524 839 599 699 c 1
 636 577 476 366 290 240 c 1
 388.205078125 241.708007812 560 300 611 191 c 1
 635 132 645 -15 378 0 c 1
EndSplineSet
Validated: 524329
EndChar

StartChar: zcaron
Encoding: 190 382 24
Width: 700
Flags: HW
LayerCount: 4
Fore
SplineSet
237 636 m 1
 281 578 297.337890625 558.5078125 349 552 c 1
 425 556 451.932617188 613.834960938 441 660 c 1
 369 686 409 664 363 616 c 1
 317 670 283 680 237 636 c 1
533 10 m 1
 429 16 119 -60 103 84 c 1
 81 242 289 262 275 324 c 1
 247.595703125 359.484375 175 272 103 378 c 1
 81 394 87 440 105 472 c 1
 166.713867188 565.938476562 221.616210938 455.694335938 463 500 c 1
 535.196289062 513.725585938 573 486 567 416 c 1
 565 332 475 268 325 148 c 1
 369 170 519 248 591 212 c 1
 685 174 599 10 533 10 c 1
EndSplineSet
Validated: 41
EndChar

StartChar: ccaron
Encoding: 232 269 25
Width: 633
Flags: HW
LayerCount: 4
Fore
SplineSet
191 661 m 1
 265 541 l 25
 341 555 l 25
 395 667 l 1
 309.701171875 683.756835938 318.625 632.32421875 297 603 c 1
 281.877929688 650.141601562 263.689453125 693.0625 191 661 c 1
580 209 m 1
 550 -56 189 -58 93 132 c 1
 1 268 82 376 140 462 c 1
 226 537 410 551 529 439 c 1
 602 339 594.780273438 259.448242188 460 266 c 1
 439 372 315 405 238 335 c 1
 200 290 190 245 209 192 c 1
 247 98 406 112 444 208 c 1
 580 209 l 1
EndSplineSet
Validated: 41
EndChar

StartChar: cacute
Encoding: 230 263 26
Width: 606
Flags: HW
LayerCount: 4
Fore
SplineSet
347 627 m 9
 265 547 l 25
 347 551 l 25
 403 615 l 25
 347 627 l 9
534 216 m 1
 538.180664062 31.66015625 248 -120 61 126 c 1
 2 247 44 334 92 410 c 1
 201 547 491 575 539 305 c 1
 555.55859375 223 432 260 410 269 c 1
 427 324 316 414 216 282 c 1
 188.911132812 184.95703125 199.305664062 262.772460938 206 193 c 1
 260 90 409.833984375 130.657226562 412 207 c 1
 534 216 l 1
EndSplineSet
Validated: 41
EndChar

StartChar: Dcroat
Encoding: 208 272 27
Width: 1000
Flags: H
LayerCount: 4
Fore
SplineSet
470 204 m 1
 540 158 732 216 728 402 c 1
 728 490 626 592 462 592 c 1
 494.255859375 542.66796875 475.134765625 493.333984375 466 444 c 1
 516.399554981 472.679034723 562.009349702 488.456312828 586 446 c 1
 603.009425906 399.926262829 611.69770787 357.71969022 572 338 c 1
 540.170599442 337.937958389 540.0390625 323.802734375 458 342 c 1
 468.572265625 307.626953125 495.5625 302.30078125 470 204 c 1
768 126 m 1
 662 -14 292 -80 174 146 c 1
 158 178 159.243232155 211.335017905 174 244 c 1
 224.666666667 334.81289353 293.333007812 215.224609375 344 210 c 1
 326.296875 253.168945312 318.625976562 244.896484375 334 320 c 1
 309.552734375 310.482421875 277.609375 303.654296875 248 328 c 1
 194.853515625 379.333007812 222 450 268 468 c 1
 300 478 318 451.33984375 334 446 c 1
 307.377929688 494 303.204101562 542 312 590 c 1
 262.045898438 592.32421875 202 526 162 594 c 1
 133.7109375 653.827148438 156.447265625 659.787109375 160 686 c 1
 166.55078125 754.295898438 530.625976562 847.452148438 754 676 c 1
 906 550 884 272 768 126 c 1
EndSplineSet
Validated: 33
EndChar

StartChar: dcroat
Encoding: 240 273 28
Width: 559
Flags: HW
LayerCount: 4
Fore
SplineSet
178 305 m 1
 145.98046875 311.951171875 132.798828125 280.818359375 116 257 c 1
 115.274414062 203.177734375 142.578125 190.969726562 166 173 c 1
 188.27734375 186.942382812 204 167 246 221 c 1
 248 281 226 311 178 305 c 1
323 130 m 1
 233 72 168 -8 56 134 c 1
 4.4638671875 201.840820312 8.1279296875 272.830078125 50 346 c 1
 140 462 251 428 313 338 c 1
 299.654296875 400.256835938 318.053710938 490.532226562 345 558 c 1
 316.244140625 554.51171875 298 520 270 546 c 1
 234.704101562 574.213867188 255.443359375 594.546875 254 618 c 1
 276.892578125 663.311523438 292.991210938 627.822265625 343 634 c 1
 304.685546875 699.631835938 329 724 353 754 c 1
 379.495117188 781.143554688 411.305664062 768.131835938 443 756 c 1
 483 708 451 656 423 630 c 1
 483 628 482 648 523 640 c 1
 555 627 551 604 537 568 c 1
 497.666992188 515.719726562 457.333007812 542.745117188 418 558 c 1
 475.124023438 355.208984375 441 206 427 134 c 1
 397 32 315 30 323 130 c 1
EndSplineSet
Validated: 33
EndChar

StartChar: Scaron
Encoding: 169 352 29
Width: 565
Flags: HW
LayerCount: 4
Fore
SplineSet
177 777 m 1
 157 741 205 709 256 691 c 1
 309 708 337 738 343 773 c 1
 332 797 307 805 258 753 c 1
 266 733 192.419921875 820.521484375 177 777 c 1
37 111 m 1
 142 -57 433 -53 532 86 c 1
 580 162 564.322265625 263.666992188 519 311 c 1
 414 414 237 393 208 453 c 1
 165 571 307 570 326 516 c 1
 349 473 307.038085938 461.333007812 337 436 c 1
 382.415039062 416.609375 405.744140625 419.427734375 435 436 c 1
 477 483 481 543 431 599 c 1
 357 688 235 695 125 634 c 1
 15.6484375 547.334960938 18 452 53 412 c 1
 118 352 239 356 311 286 c 1
 411 121 162 71 165 229 c 1
 173 275 183 312 132 333 c 1
 88 340 50 332 21 277 c 1
 -6 213 5 153 37 111 c 1
EndSplineSet
Validated: 41
EndChar

StartChar: scaron
Encoding: 185 353 30
Width: 465
Flags: HW
LayerCount: 4
Fore
SplineSet
103 654 m 1
 129.711914062 629.780273438 165.26953125 590.93359375 187 590 c 1
 240.920898438 562.415039062 234 591 328 642 c 1
 333 675 278.640625 676.66796875 207 633 c 1
 184.766601562 644.428710938 107 706 103 654 c 1
33 78 m 1
 72 -12 470 -77 463 190 c 1
 415 423 79.927734375 251.982421875 175 430 c 0
 186.77734375 452.051757812 272 483 287 405 c 1
 258.33984375 382.809570312 269 364 274 355 c 1
 302.12617567 343.682812851 318.030273438 336.68359375 362 350 c 1
 405 383 401 431 374 473 c 1
 301 560 159 604 56 440 c 1
 -28 251 212.638671875 333.100585938 258 218 c 1
 275 105 110 66 103 180 c 1
 118 233 147 132 182 180 c 1
 212 303 93 285 58 250 c 1
 7 206 -3 122 33 78 c 1
EndSplineSet
Validated: 41
EndChar

StartChar: O
Encoding: 79 79 32
Width: 759
Flags: HW
LayerCount: 4
Fore
SplineSet
322 480 m 1
 292 442 302 366 326 350 c 1
 350 322 416 316 436 344 c 1
 478 392 464 448 442 478 c 1
 414 512 364.663085938 517.501953125 322 480 c 1
62 604 m 1
 230 886 624 834 712 604 c 1
 758 526 782 280 696 150 c 1
 580 -42 190 -58 58 158 c 1
 -16 270 -17.373046875 475.028320312 62 604 c 1
EndSplineSet
Validated: 33
EndChar

StartChar: P
Encoding: 80 80 33
Width: 667
Flags: HW
LayerCount: 4
Fore
SplineSet
369 657 m 1
 401.465820312 675.741210938 487 675 483 591 c 1
 470 534 416 529 364 544 c 1
 392 567 394 638 369 657 c 1
156 574 m 1
 194 544 71 129 139 47 c 1
 199 -36 301 0 328 40 c 1
 328 40 390 240 320 403 c 1
 378 345 525 337 607 419 c 1
 678 510 682 644 612 719 c 1
 476.403320312 854.4296875 277.984375 796.779296875 183 746 c 1
 128 732 35 760 5 692 c 1
 -19 634 20 521 156 574 c 1
EndSplineSet
Validated: 41
EndChar

StartChar: Q
Encoding: 81 81 34
Width: 709
Flags: HW
LayerCount: 4
Fore
SplineSet
218 532 m 1
 266 588 380 620 464 550 c 1
 522 490 530 360 460 276 c 1
 470 320 446 352 418 344 c 1
 386 348 342 324 344 296 c 1
 330 268 327.2421875 251.270507812 362 232 c 1
 305.526367188 208.016601562 230 244 206 270 c 1
 148 322 148 462 218 532 c 1
112 714 m 1
 -36 566 -28 262 90 150 c 1
 138 96 236 34 346 48 c 1
 458 110 452 92 492 18 c 1
 544 -22 606 0 626 42 c 1
 672 96 551.4765625 167.608398438 556 164 c 1
 594 174 618 190 644 224 c 1
 720 308 734 526 586 692 c 1
 500 808 236 844 112 714 c 1
EndSplineSet
Validated: 37
EndChar

StartChar: R
Encoding: 82 82 35
Width: 759
Flags: HW
LayerCount: 4
Fore
SplineSet
354 667 m 1
 433.72265625 679.728515625 463 655 471 619 c 1
 467 561 405 558 361 570 c 1
 374 605 372.307617188 629.053710938 354 667 c 1
146 548 m 1
 262 604 89 194 142 64 c 1
 180 -29 329 -12 341 59 c 1
 353 89 309 277 337 333 c 1
 465 307 487 102 566 36 c 1
 601 0 711 -12 748 34 c 1
 780 128 643 370 431 405 c 5
 563 387 651 499 648 607 c 1
 626 757 482 788 442 797 c 1
 279.771484375 819.591796875 212.938476562 752.44921875 160 741 c 1
 28 731 15 688 5 628 c 1
 12 579 55 523 146 548 c 1
EndSplineSet
Validated: 41
EndChar

StartChar: S
Encoding: 83 83 36
Width: 701
Flags: HW
LayerCount: 4
Fore
SplineSet
440 666 m 1
 485 634 358 620 411 546 c 1
 431 520 495 497 544 524 c 1
 621 549 651 648 591 713 c 1
 471 835 186 845 65 632 c 1
 21 549 53 483 135 441 c 1
 191 404 410 408 427 292 c 1
 432.896484375 235.9140625 397 210 357 194 c 1
 301 179 204 194 177 291 c 1
 179 363 173 392 126 405 c 1
 60 427 21 368 9 333 c 1
 -3 258 2 208 54 125 c 1
 189 -50 494 -13 625 78 c 1
 688 121 706 199 695 284 c 1
 684 330 687 352 592 432 c 1
 424 547 235 490 267 600 c 1
 298 693 392 692 440 666 c 1
EndSplineSet
Validated: 41
EndChar

StartChar: T
Encoding: 84 84 37
Width: 783
Flags: HW
LayerCount: 4
Fore
SplineSet
22 738 m 1
 -3.33203125 718.4140625 -6 662 28 584 c 1
 84 494 230 642 314 606 c 1
 370 558 262 76 316 30 c 1
 368 -16 458 -2 514 26 c 1
 589.477539062 65.2216796875 444 528 504 594 c 1
 574.02734375 606.9296875 674 512 744 568 c 1
 762.40234375 633.872070312 802.64453125 705.1015625 760 756 c 1
 694 816 100 802 22 738 c 1
EndSplineSet
Validated: 41
EndChar

StartChar: U
Encoding: 85 85 38
Width: 682
Flags: HW
LayerCount: 4
Fore
SplineSet
60 130 m 1
 236 -76 506 -16 614 150 c 1
 696 302 688 704 632 766 c 1
 598 816 534.665039062 810.295898438 486 772 c 1
 408 672 522 322 446 234 c 1
 404 182 258 170 214 232 c 1
 162 328 288 674 226 768 c 1
 204 804 152 822 86 774 c 1
 -10 690 -18 214 60 130 c 1
EndSplineSet
Validated: 41
EndChar

StartChar: V
Encoding: 86 86 39
Width: 646
Flags: HW
LayerCount: 4
Fore
SplineSet
4 694 m 1
 38 826 188 828 214 696 c 1
 232 614 270 232 340 358 c 1
 388 494 406 598 450 710 c 1
 508 812 618 794 642 702 c 1
 634 620 498.471679688 0 290 0 c 0
 92 0 -1.1220703125 691.098632812 4 694 c 1
EndSplineSet
Validated: 33
EndChar

StartChar: W
Encoding: 87 87 40
Width: 867
Flags: HW
LayerCount: 4
Fore
SplineSet
26 754 m 5
 92 808 178 812 220 784 c 5
 297 727 196 306 264 358 c 1
 324.768554688 420.678710938 268 738 466 704 c 1
 576 686 532 390 588 380 c 1
 672 382 530 754 680 784 c 1
 798 810 846 778 858 748 c 1
 896 686 734 24 672 14 c 1
 604 -16 592.162109375 4.974609375 558 32 c 1
 482 138 538 306 416 302 c 1
 324 286 372 72 312 32 c 1
 294 0 196 -22 168 48 c 1
 76 154 -42 744 26 754 c 5
EndSplineSet
Validated: 33
EndChar

StartChar: X
Encoding: 88 88 41
Width: 1000
Flags: H
LayerCount: 4
Fore
SplineSet
382 390 m 1
 292 258 58 132 116 46 c 1
 134 -24 340 -14 382 48 c 1
 419.86649582 90.1229382594 470 178 492 304 c 1
 524 186 570 108 658 44 c 1
 728 -20 854 -14 888 40 c 1
 950 200 652 264 604 398 c 1
 708 430 874 622 838 716 c 1
 796 792 660 788 614 726 c 1
 572 662 564 474 494 484 c 1
 380 442 376 718 292 744 c 1
 244 768 132.798956424 771.782638674 102 704 c 1
 94 528 292 402 382 390 c 1
EndSplineSet
Validated: 41
EndChar

StartChar: Y
Encoding: 89 89 42
Width: 642
Flags: HW
LayerCount: 4
Fore
SplineSet
198 352 m 1
 178 246 178 78 214 34 c 1
 266.001953125 -20 370 -12 402 36 c 1
 454 80 416 174 386 350 c 1
 348 472 696 712 626 762 c 1
 586 816 496 816 442 760 c 1
 388 700 392.278320312 606.666992188 306 548 c 1
 206 600 243.767578125 693.587890625 208 756 c 1
 174 814 50 794 12 756 c 1
 -56 684 256 468 198 352 c 1
EndSplineSet
Validated: 41
EndChar

StartChar: b
Encoding: 98 98 43
Width: 461
Flags: HW
LayerCount: 4
Fore
SplineSet
315 241 m 1
 327 241 379.275390625 217.963867188 367 174 c 1
 364 147 338 127 314 125 c 1
 286 120 261 143 253 169 c 1
 251 219 273 235 315 241 c 1
35 739 m 1
 -3 667 -11.794921875 100.2578125 43 31 c 1
 67 -9 138 -6 154 24 c 9
 158 80 l 1
 179 49 201 16 273 0 c 1
 454 -15 461 94 461 185 c 1
 461 276 373 360 285 346 c 1
 237.943359375 333.931640625 219 322 189 284 c 1
 104 246 169 699 159 743 c 1
 135 799 55 777 35 739 c 1
EndSplineSet
Validated: 41
EndChar

StartChar: d
Encoding: 100 100 44
Width: 498
Flags: HW
LayerCount: 4
Fore
SplineSet
259 274 m 1
 306 237 298 153 250 116 c 1
 210 90 164.998046875 100.66796875 137 112 c 1
 87 148 84 213 116 262 c 1
 170.170898438 308.9375 226.52734375 295.146484375 259 274 c 1
320 345 m 1
 276 397 163.75390625 429.984375 54 343 c 1
 -4 285 -23 140 53 52 c 1
 127 -30 268.725585938 -4.533203125 325 48 c 1
 340.360351562 65.90625 357.213867188 80.794921875 365 114 c 1
 388.83203125 156.86328125 363.28125 84.56640625 375 56 c 1
 398 -38 509 -1 491 54 c 1
 377 285 459 589 464 759 c 1
 451 793 381 821 331 768 c 1
 258 703 377 364 320 345 c 1
EndSplineSet
Validated: 41
EndChar

StartChar: f
Encoding: 102 102 45
Width: 452
Flags: HW
LayerCount: 4
Fore
SplineSet
39 26 m 1
 71 126 195.061523438 68.29296875 148 24 c 0
 114 -8 134.700195312 -61.7734375 134 -61 c 1
 161 -102 208 -100 233 -72 c 1
 295 -24 181 155 157 268 c 1
 130 295 50.3525390625 253.556640625 23 282 c 1
 3.1640625 318.666992188 -13.0908203125 355.333007812 19 392 c 1
 44.8095703125 419.010742188 149 350 141 406 c 1
 131.438476562 492.55859375 33.494140625 616.576171875 130 708 c 1
 230 789.984375 388 750 430 704 c 1
 453.90234375 663.184570312 452.826171875 625.485351562 434 590 c 1
 412 548 361 553 348 582 c 1
 346.677734375 604.141601562 359.32421875 629.584960938 338 647 c 1
 298 676 251.030273438 683.840820312 208 660 c 0
 134 619 214 466 236 398 c 1
 257 352 341 459 405 380 c 1
 427.751088872 333.522282038 433.359799733 309.897716168 419 284 c 1
 381 255 273 311 258 283 c 1
 307.134765625 32.0927734375 387 -41 341 -123 c 1
 259 -251 81 -192 47 -103 c 1
 34 -73 19 -45 39 26 c 1
EndSplineSet
Validated: 33
EndChar

StartChar: g
Encoding: 103 103 46
Width: 437
Flags: HW
LayerCount: 4
Fore
SplineSet
229 238 m 1
 254.560546875 210 240.797851562 182 225 154 c 1
 184.333007812 113.607421875 143.666992188 109.11328125 103 154 c 1
 86.630859375 180.666992188 97.4306640625 207.333007812 109 234 c 1
 146.055664062 279.599609375 186.624023438 272.37890625 229 238 c 1
317 302 m 17
 273 336 157 378 55 304 c 1
 -11 256 -11 134 47 66 c 1
 117 0 247 28 297 74 c 1
 320.4375 30.5263671875 342 -33 305 -75 c 1
 260 -134 170 -144 125 -85 c 5
 112 -32 178 -28 145 -1 c 0
 139.502929688 3.4970703125 75.4541015625 6.8173828125 53 -7 c 0
 27 -23 22 -68 49 -123 c 1
 88 -208 325 -230 409 -130 c 1
 451.791015625 -90.2958984375 431.263671875 -0.275390625 423 80 c 9
 415 350 l 1
 411 382 339 402 313 360 c 9
 317 302 l 17
EndSplineSet
Validated: 41
EndChar

StartChar: h
Encoding: 104 104 47
Width: 464
Flags: HW
LayerCount: 4
Fore
SplineSet
8 712 m 1
 32 540 -26.8515625 36.3408203125 24 12 c 1
 58 -20 162 -12 182 18 c 1
 194.158203125 25.5908203125 189.180664062 86.216796875 172 232 c 1
 182.216796875 288.598632812 282 268 282 214 c 1
 292 158 246 32 294 8 c 1
 294 8 416.000976562 14.07421875 418 14 c 0
 472 12 484 192 398 300 c 1
 287.885742188 443.279296875 166 348 146 312 c 1
 92 334 209.555664062 637.494140625 154 720 c 1
 142 774 8 768 8 712 c 1
EndSplineSet
Validated: 41
EndChar

StartChar: j
Encoding: 106 106 48
Width: 479
Flags: HW
LayerCount: 4
Fore
SplineSet
248 504 m 1
 286 464 353 446 405 494 c 5
 430 519 440.484375 542.301757812 418 572 c 5
 390 622 306 622 266 588 c 1
 230 568 226 528 248 504 c 1
436 380 m 1
 390 438 308 412 280 378 c 1
 233 290 317.643554688 19.1455078125 318 16 c 0
 330 -90 120.648335646 -108.707122594 132 0 c 0
 135.7109375 35.537109375 48 68 16 0 c 0
 8.1513671875 -16.677734375 -26 -96 22 -146 c 1
 90 -228 368 -236 442 -70 c 1
 491 23 487 239 436 380 c 1
EndSplineSet
Validated: 41
EndChar

StartChar: m
Encoding: 109 109 49
Width: 627
Flags: HW
LayerCount: 4
Fore
SplineSet
38 30 m 1
 -16 96 0.138671875 206.11328125 42 336 c 1
 63 389 159 398 180 336 c 1
 183 314 165 254 189 245 c 1
 235 365 348 324 366 228 c 1
 416 328 550 367 613 180 c 5
 680 -56 497 -6 500 30 c 1
 530 210 414 157 409 58 c 1
 403 -12 309 -24 301 58 c 1
 303 134 187 240 174 32 c 1
 151 -18 65 0 38 30 c 1
EndSplineSet
Validated: 33
EndChar

StartChar: n
Encoding: 110 110 50
Width: 514
Flags: HW
LayerCount: 4
Fore
SplineSet
84 6 m 1
 -42 32 24.525163598 206.000000357 -1 349 c 1
 17 416 175 435 200 342 c 1
 198 325 180.999980001 183.000013962 218 236 c 0
 424.271484375 531.469726562 581 157 484 39 c 1
 437 -29 346 6 347 30 c 1
 359.999998136 285.922258957 213 210 192 22 c 1
 182 0 123 0 84 6 c 1
EndSplineSet
Validated: 33
EndChar

StartChar: o
Encoding: 111 111 51
Width: 515
Flags: HW
LayerCount: 4
Fore
SplineSet
316 266 m 5
 348.293945312 215.858398438 340.235351562 191.177734375 314 157 c 5
 286 117 209 109 165 165 c 1
 141 199 134.1796875 228.666992188 173 268 c 1
 213 308 262.666992188 311.452148438 316 266 c 5
460 349 m 1
 360 471 148 451 56 357 c 1
 -8 301 -26 134 58 66 c 1
 152 -20 346 -20 438 60 c 1
 510 126 554 279 460 349 c 1
EndSplineSet
Validated: 41
EndChar

StartChar: p
Encoding: 112 112 52
Width: 441
Flags: HW
LayerCount: 4
Fore
SplineSet
344 280 m 1
 366 253 356 216 336 198 c 1
 300 174 251 180 217 212 c 1
 205 240 203 260 234 291 c 1
 272 311 313.0546875 301.700195312 344 280 c 1
23 316 m 1
 8 195 -8 -85 22 -145 c 1
 37 -208 143 -217 168 -170 c 1
 190 -116 89.6015625 67.6123046875 153 166 c 1
 227 99 336 99 398 153 c 1
 456 215 449 287 381 347 c 1
 290.73828125 408.318359375 193 368 161 332 c 1
 133 394 41 368 23 316 c 1
EndSplineSet
Validated: 41
EndChar

StartChar: q
Encoding: 113 113 53
Width: 506
Flags: HW
LayerCount: 4
Fore
SplineSet
231 330 m 1
 249 298 249 284 235 257 c 1
 205 229 177 232 142 249 c 1
 126 261 116 297 136 327 c 1
 169 353 197 366 231 330 c 1
315 420 m 1
 269 396 160 493 59 411 c 1
 13 365 -27 291 38 195 c 1
 98 116 268 134 310 196 c 1
 305 -27 l 1
 275.86328125 -27.935546875 200.889648438 30.2548828125 181 -31 c 1
 165 -52 176 -77 190 -94 c 1
 221 -124 267.91015625 -88.01953125 295 -89 c 1
 325.31640625 -85.4638671875 285 -147 295 -177 c 1
 315 -214 383 -204 395 -185 c 1
 400 -145 355.251953125 -85.8701171875 391 -89 c 1
 429.28515625 -102.489257812 475.775390625 -131.78515625 489 -97 c 1
 503.411132812 -75 506.517578125 -33 489 -11 c 1
 462.193359375 20.1591796875 415.666992188 -21.9970703125 384 -20 c 1
 396 186 l 1
 391.252929688 288 430 453 369 491 c 1
 247 513 314 461 315 420 c 1
EndSplineSet
Validated: 41
EndChar

StartChar: r
Encoding: 114 114 54
Width: 395
Flags: HW
LayerCount: 4
Fore
SplineSet
6 38 m 1
 8.572265625 122.671875 30.5751953125 254.698242188 0 349 c 1
 -4 417 146 409 132 345 c 9
 137 277 l 1
 229.032226562 370.274414062 363 407 387 287 c 1
 397.745117188 244.458984375 384.89453125 142.893554688 358 158 c 1
 274 212 258 232 162 158 c 1
 158.556640625 114.612304688 148.546875 -11.5048828125 152 32 c 1
 138 -14 20 -8 6 38 c 1
EndSplineSet
Validated: 41
EndChar

StartChar: s
Encoding: 115 115 55
Width: 410
Flags: HW
LayerCount: 4
Fore
SplineSet
238 396 m 1
 251 356 217 371 218 343 c 1
 228 311 284 302 317 323 c 1
 373 365 366 416 316 461 c 1
 251 528 127 518 81 474 c 1
 15.9140625 393.065429688 -6 341 61 286 c 1
 126 229 205 216 227 200 c 1
 251.915039062 186.412109375 274 169 266 134 c 1
 250 90 146 74 124 152 c 1
 123.598632812 169.939453125 131.235351562 193.103515625 120 204 c 1
 85 231 57.66796875 219.16015625 30 204 c 1
 -14 148 -3 83 32 44 c 1
 100 -25 255.991288859 -27.9862432418 346 29 c 0
 347.368164062 29.8662109375 483 134 347 254 c 1
 301 293 230 284 157 320 c 1
 121 340 120.000976562 369.575195312 130 387 c 1
 158.990234375 442.2734375 209.556640625 424.6953125 238 396 c 1
EndSplineSet
Validated: 41
EndChar

StartChar: t
Encoding: 116 116 56
Width: 463
Flags: HW
LayerCount: 4
Fore
SplineSet
165 326 m 1
 211.127929688 252.481445312 110.751953125 137.427734375 113 58 c 1
 129 -28 307 0 319 56 c 1
 326.360351562 139.14453125 238.7265625 259.122070312 291 328 c 1
 347.802734375 304.529296875 373 298 423 328 c 1
 440.636146712 351.002355875 484 377 447 446 c 1
 379 512 326.744140625 451.184570312 275 450 c 1
 270.220703125 524 315 570 271 672 c 1
 245 708 233.515625 722.177734375 163 672 c 1
 117.325195312 595.333007812 179.678710938 518.666992188 183 442 c 1
 148.333007812 441.953125 65.6669921875 481.301757812 31 448 c 1
 6.5087890625 424.405273438 -14.5322265625 398.280273438 11 338 c 1
 30.435546875 295.10546875 92.7099609375 304.446289062 165 326 c 1
EndSplineSet
Validated: 41
EndChar

StartChar: u
Encoding: 117 117 57
Width: 416
Flags: HW
LayerCount: 4
Fore
SplineSet
26 312 m 1
 -4.4599609375 195.4375 -6 96 20 70 c 1
 106 -62 214 14 270 76 c 1
 235.260742188 -54.802734375 430 14 410 82 c 1
 378 166 418 326 392 344 c 1
 352.919921875 356.67578125 307.741210938 348.23828125 258 324 c 1
 185.953125 325.346679688 253.296875 208.83984375 246 166 c 1
 214 82 120.379882812 98.8369140625 110 168 c 1
 107.469726562 208.525390625 170 314 124 332 c 1
 66 348 54 330 26 312 c 1
EndSplineSet
Validated: 41
EndChar

StartChar: v
Encoding: 118 118 58
Width: 444
Flags: HW
LayerCount: 4
Fore
SplineSet
8 330 m 1
 134 239 54 -1 234 -4 c 1
 394 -8 274 192 438 322 c 1
 437 369 306 371 290 330 c 1
 273.463867188 286.703125 292 123 230 126 c 1
 149 126 156 262 146 332 c 1
 127 385 -4 374 8 330 c 1
EndSplineSet
Validated: 41
EndChar

StartChar: w
Encoding: 119 119 59
Width: 653
Flags: HW
LayerCount: 4
Fore
SplineSet
7 315 m 1
 1 263 0 237 140 36 c 1
 183.788085938 -21.7548828125 241 -6 256 26 c 1
 273 61 281.087890625 133.6875 328 136 c 1
 393.232421875 136 359.044118404 61.7503334507 394 26 c 0
 438 -19 489 -3.5527136788e-15 514 26 c 0
 573.25366276 87.6238092701 670 275 647 342 c 1
 609 409 528 390 504 362 c 1
 475 329 503 229 438 262 c 1
 393 310 417 337 368 364 c 1
 311 390 267 372 252 364 c 1
 198.053710938 332.2421875 239 271 212 254 c 1
 158 244 165 343 140 366 c 1
 112 398 36 394 7 315 c 1
EndSplineSet
Validated: 41
EndChar

StartChar: x
Encoding: 120 120 60
Width: 486
Flags: HW
LayerCount: 4
Fore
SplineSet
384 449 m 1
 395.008789062 449.404296875 426 430 439 401 c 1
 469 316 331 270 317 238 c 1
 313 172 474 152 483 86 c 1
 489 24 452 6 434 2 c 1
 342 -5 318 21 245 153 c 1
 212.516601562 91.21484375 156 9 89 4 c 1
 55 4 32 9 9 36 c 1
 -51 161 206 147 150 258 c 1
 116.34765625 304.381835938 20.6123046875 332.8984375 25 397 c 1
 41 451 75.6669921875 467.666992188 129 447 c 1
 181 418 188.696289062 335.083007812 233 284 c 1
 275.59375 325.234375 311.055664062 486.249023438 384 449 c 1
247 341 m 1024
EndSplineSet
Validated: 33
EndChar

StartChar: y
Encoding: 121 121 61
Width: 374
Flags: HW
LayerCount: 4
Fore
SplineSet
0 286 m 1
 2.3837890625 231.092773438 138.185546875 127.895507812 142 64 c 1
 146.848632812 -30.1611328125 50 -128 62 -172 c 1
 82 -206 151 -200 174 -180 c 1
 202 -154 186.889648438 -73.265625 261 56 c 1
 292 114 379 283 373 302 c 1
 367 334 288 342 266 308 c 1
 244.599609375 253.1796875 295 226 204 146 c 1
 169.795898438 203.693359375 102 216 96 310 c 1
 90 334 0 344 0 286 c 1
EndSplineSet
Validated: 41
EndChar

StartChar: z
Encoding: 122 122 62
Width: 436
Flags: HW
LayerCount: 4
Fore
SplineSet
16 404 m 5
 3.125 376.853515625 6.3525390625 346.473632812 20 314 c 5
 95.9970703125 319.815429688 232 382 230 308 c 5
 232.784179688 260.083007812 50 156 16 110 c 1
 -6 94 -3.556640625 64.578125 16 36 c 1
 92 -20 338 10 412 50 c 1
 442 80 436 118 402 142 c 1
 372 162 212 76 216 124 c 1
 202.985351562 167.701171875 386 298 402 358 c 5
 404 396 406.404296875 407.333007812 378 432 c 5
 266.147460938 413.51953125 44.0673828125 509.428710938 16 404 c 5
EndSplineSet
Validated: 41
EndChar

StartChar: zero
Encoding: 48 48 63
Width: 525
Flags: HW
LayerCount: 4
Fore
SplineSet
266 576 m 1
 370 564 346 462 346 426 c 1
 348 340 350 262 260 262 c 1
 184 268 171.904296875 342.55078125 178 434 c 1
 190.224609375 499.87890625 194 556 266 576 c 1
270 788 m 1
 120 786 16 646 4 388 c 1
 0 86 170 -10 268 0 c 1
 472 8 522.265625 200.00390625 518 398 c 1
 518 506 494 786 270 788 c 1
EndSplineSet
Validated: 41
EndChar

StartChar: one
Encoding: 49 49 64
Width: 448
Flags: HW
LayerCount: 4
Fore
SplineSet
203 755 m 1
 139 647 3 561 1 465 c 1
 -7 411 49 345 107 359 c 1
 147 371 187 413 203 445 c 1
 282.083984375 476.821289062 107 79 239 17 c 1
 301 -11 371 1 405 31 c 1
 489 127 417 667 373 757 c 1
 328.310546875 829.518554688 241 791 203 755 c 1
EndSplineSet
Validated: 41
EndChar

StartChar: two
Encoding: 50 50 65
Width: 614
Flags: HW
LayerCount: 4
Fore
SplineSet
144 526 m 1
 101.771484375 469.049804688 -15.93359375 575.204101562 80 674 c 1
 126 754 364 864 506 678 c 5
 668 432 139.028320312 231.22265625 234 194 c 1
 314 142 400 322 558 214 c 1
 638 160 600 0 544 10 c 1
 336 76 112 -46 38 40 c 1
 -94 220 244 310 322 486 c 1
 334 580 252 640 144 526 c 1
EndSplineSet
Validated: 33
EndChar

StartChar: three
Encoding: 51 51 66
Width: 550
Flags: HW
LayerCount: 4
Fore
SplineSet
76 642 m 1
 184 808 438 770 488 660 c 1
 555.810546875 509.44140625 484 420 404 394 c 1
 558 334 556 180 524 106 c 1
 376 -64 128 20 60 124 c 1
 42 164 28 202 62 254 c 1
 180 312 170 138 282 158 c 1
 402 200 372.000976562 361.995117188 190 336 c 0
 175.3203125 333.903320312 180 326 136 356 c 1
 98 386 104 418 126 450 c 1
 250 550 227.219726562 404.2421875 338 482 c 1
 369.819335938 507.439453125 381.439453125 515.584960938 346 578 c 1
 284.6796875 635.016601562 244.586914062 631.815429688 162 550 c 1
 102 510 40 586 76 642 c 1
EndSplineSet
Validated: 33
EndChar

StartChar: four
Encoding: 52 52 67
Width: 648
Flags: HW
LayerCount: 4
Fore
SplineSet
340 396 m 1
 286 422.225585938 260 427.782226562 206 398 c 1
 214 508 268 570 300 588 c 1
 386 576 364 436 340 396 c 1
200 682 m 1
 40 528 -40 308 34 216 c 1
 86 150 346 258 362 218 c 1
 311.532226562 55.59375 318.833984375 83.0693359375 336 46 c 1
 362 -20 470 0 502 42 c 1
 565.846679688 131.453125 479.6171875 141.16015625 480 226 c 1
 506 260 564.666992188 182.783203125 614 240 c 1
 652 294 652 354 606 386 c 1
 568.83984375 420.084960938 514 360 508 382 c 1
 548 446 568 688 482 778 c 1
 446 810 344 798 200 682 c 1
EndSplineSet
Validated: 41
EndChar

StartChar: five
Encoding: 53 53 68
Width: 604
Flags: HW
LayerCount: 4
Fore
SplineSet
520 764 m 1
 446 826 126 788 74 736 c 1
 10 666 -32 516 44 458 c 1
 124.310546875 357.245117188 340 430 348 286 c 1
 300 104 186 288 72 228 c 1
 14 204 -4 136 36 94 c 1
 112 0 382 -64 522 86 c 1
 568 146 627.266601562 239.295898438 576 364 c 1
 544 448 418 550 212 520 c 1
 160 548 186 606 222 640 c 1
 286.220703125 685.420898438 426.422851562 616.889648438 500 646 c 1
 562 678 544 740 520 764 c 1
EndSplineSet
Validated: 41
EndChar

StartChar: six
Encoding: 54 54 69
Width: 592
Flags: HW
LayerCount: 4
Fore
SplineSet
248 298 m 1
 306.666992188 370.604492188 390 334 424 296 c 1
 448 258 428 204 402 192 c 1
 362 150.481445312 322 160 268 188 c 1
 236 206 224.291992188 258.825195312 248 298 c 1
514 668 m 1
 462 794 190 802 90 642 c 1
 6 490 -32 240 90 108 c 1
 182 0 456 22 528 104 c 1
 614 196 604 308 516 372 c 1
 432 448 302 470 222 368 c 1
 158 392 176 510 234 582 c 1
 290 652 354 592 436 576 c 1
 490 560 534 618 514 668 c 1
EndSplineSet
Validated: 41
EndChar

StartChar: seven
Encoding: 55 55 70
Width: 640
Flags: HW
LayerCount: 4
Fore
SplineSet
52 720 m 1
 8 678 2 650 26 608 c 1
 124 528 312 692 376 622 c 1
 330 572 350 494 334 414 c 1
 276 470 190 480 158 402 c 1
 147.909179688 379.919921875 132 338 168 304 c 1
 210 268 255.0546875 278.817382812 324 314 c 1
 270 184 188 108 234 42 c 1
 274 2 334 -18 402 24 c 1
 466 82 402 184 446 312 c 1
 519.428710938 315.666015625 530.060546875 233.436523438 622 310 c 1
 638.303710938 344.666992188 642.890625 379.333007812 622 414 c 1
 609.131835938 454.19140625 533.953125 445.7109375 468 424 c 1
 476.068359375 578.776367188 582.669921875 648.40625 544 704 c 1
 404 860 142 792 52 720 c 1
EndSplineSet
Validated: 41
EndChar

StartChar: eight
Encoding: 56 56 71
Width: 586
Flags: HW
LayerCount: 4
Fore
SplineSet
354 208 m 1
 410.77734375 274.192382812 380 306 352 342 c 1
 304 378.204101562 256 373.826171875 208 346 c 1
 186 334 140.102539062 272.094726562 192 224 c 1
 246 183.067382812 300 189.44921875 354 208 c 1
224 560 m 1
 264 532.001953125 304 530.66796875 344 556 c 1
 374 584 374 634 350 648 c 1
 320 683.044921875 280 676.940429688 250 660 c 1
 200 652 206 584 224 560 c 1
106 726 m 1
 168 804 372 832 470 736 c 1
 548 650 560 508 488 460 c 1
 558 374 616 246 542 94 c 1
 474 -28 146 -46 48 82 c 1
 -28 164 -20 372 102 458 c 1
 21.30078125 546.958984375 58 666 106 726 c 1
EndSplineSet
Validated: 33
EndChar

StartChar: nine
Encoding: 57 57 72
Width: 605
Flags: HW
LayerCount: 4
Fore
SplineSet
175 674 m 1
 227 718 267 726 323 704 c 1
 361.185546875 673.794921875 405 594 369 544 c 1
 329 507.986328125 197 514 171 540 c 1
 130.783203125 602.547851562 159.375976562 652.9375 175 674 c 1
467 732 m 1
 349 822 208.333007812 818.329101562 79 726 c 1
 15 652 3 532 85 458 c 1
 155 406 343 376 429 462 c 1
 481 376 455 228 347 170 c 1
 275 120 107 166 163 266 c 0
 171.521484375 281.216796875 203 308 167 336 c 1
 142.27734375 350.737304688 97 370 45 328 c 1
 -11.5390625 235.290039062 -13 188 43 104 c 1
 151 -22 405 -34 509 76 c 1
 617 206 653 536 467 732 c 1
EndSplineSet
Validated: 41
EndChar

StartChar: exclam
Encoding: 33 33 73
Width: 324
Flags: HW
LayerCount: 4
Fore
SplineSet
100 138 m 1
 148 186 210 156 224 130 c 1
 238 118 242.087890625 58 220 32 c 1
 190 -2 118 -8 92 34 c 1
 80 60 66 88 100 138 c 1
148 188 m 1
 24 198 -54 552 48 740 c 1
 100 814 224 822 280 746 c 1
 374 498 274 176 148 188 c 1
EndSplineSet
Validated: 33
EndChar

StartChar: quotedbl
Encoding: 34 34 74
Width: 268
Flags: HW
LayerCount: 4
Fore
SplineSet
176 620 m 1
 186 786 l 1
 262 794 l 1
 257.096679688 737.797851562 265.6171875 717.171875 252 614 c 1
 176 620 l 1
14 782 m 25
 8 616 l 1
 90 614 l 1
 98 786 l 25
 14 782 l 25
EndSplineSet
Validated: 41
EndChar

StartChar: numbersign
Encoding: 35 35 75
Width: 850
Flags: HW
LayerCount: 4
Fore
SplineSet
336 330 m 1
 392.797851562 374.9375 484 374 528 334 c 1
 493.254882812 387.9453125 506 452 528 492 c 1
 478 454 400 448 340 494 c 1
 364.473477239 443.333333336 359.166992188 380.666992188 336 330 c 1
180 54 m 1
 152 122 165.231445312 142.096679688 184 236 c 1
 158 198 46 176 20 218 c 1
 -14 256 -12 322 18 354 c 1
 59.3046875 394.662109375 144.076171875 366.616210938 196 338 c 1
 190 486 l 1
 148 436 20 472 14 514 c 1
 -5.6162109375 549.009765625 0.65234375 580.30078125 18 610 c 1
 59.978515625 657.641601562 142.776367188 609.549804688 190 590 c 1
 184.663085938 631.272460938 167.452313133 687.067364854 176 738 c 1
 196 798 298 836 338 744 c 1
 356 716 321.798828125 641.796875 322 600 c 1
 388 668.783203125 500 638 544 608 c 1
 534 728 l 1
 552 848 726 788 706 716 c 1
 704.904296875 677.234375 672.749023438 644.161132812 674 610 c 1
 688 622 770 668 808 632 c 1
 864 592 848 510 808 478 c 1
 764.666992188 458.5078125 721.333007812 454.508789062 678 462 c 1
 674 324 l 1
 718.11328125 372.18359375 822 340 838 306 c 1
 856 270 850 212 814 186 c 1
 746 152 696 172 674 220 c 1
 684 100 l 1
 694 -18 526 -46 512 94 c 1
 528 228 l 1
 496 196 378 182 336 226 c 1
 348 104 l 1
 348 -22 210 -16 180 54 c 1
EndSplineSet
Validated: 33
EndChar

StartChar: percent
Encoding: 37 37 76
Width: 732
Flags: HW
LayerCount: 4
Fore
SplineSet
496 202 m 1
 459.674804688 146.666992188 468 78 512 36 c 1
 564 -10 640 4 680 54 c 1
 720 102 724 178 668 220 c 1
 640 256 550.288085938 277.243164062 496 202 c 1
52 744 m 1
 24 712 16 640 60 600 c 1
 92 564 186 536 242 600 c 1
 286 658 278 714 242 750 c 1
 166 806 108 800 52 744 c 1
4 134 m 1
 96 360 344 602 552 746 c 1
 650 818 732 748 718 690 c 1
 598 378 266.4375 99.1376953125 114 50 c 1
 40 20 -16 84 4 134 c 1
EndSplineSet
Validated: 41
EndChar

StartChar: quotesingle
Encoding: 39 39 77
Width: 142
Flags: HW
LayerCount: 4
Fore
SplineSet
8 786 m 25
 12 596 l 25
 130 580 l 25
 126 788 l 25
 8 786 l 25
EndSplineSet
Validated: 9
EndChar

StartChar: parenleft
Encoding: 40 40 78
Width: 334
Flags: HW
LayerCount: 4
Fore
SplineSet
332 714 m 1
 334 796 l 1
 -84 768 -122 34 334 2 c 1
 334 94 l 1
 66 84 38 642 332 714 c 1
EndSplineSet
Validated: 41
EndChar

StartChar: parenright
Encoding: 41 41 79
Width: 280
Flags: HW
LayerCount: 4
Fore
SplineSet
2 688 m 1
 278 682 224 88 6 114 c 1
 -2 0 l 1
 388 2 348 782 0 794 c 1
 2 688 l 1
EndSplineSet
Validated: 41
EndChar

StartChar: plus
Encoding: 43 43 80
Width: 586
Flags: HW
LayerCount: 4
Fore
SplineSet
16 448 m 1
 70 512 174 466 212 432 c 5
 228 508 168 500 178 582 c 5
 198 658 360 676 404 586 c 5
 422 514 348 508 368 440 c 1
 404 458 504 538 558 460 c 1
 602 422 588.540039062 357.448242188 556 310 c 1
 474 274 402 328 368 334 c 1
 390 270 438 282 410 188 c 1
 382 110 228 80 184 198 c 1
 175.493164062 268.666992188 220 290 212 330 c 1
 156 314 72 268 26 324 c 1
 -4 370 0.8603515625 402.23046875 16 448 c 1
EndSplineSet
Validated: 33
EndChar

StartChar: comma
Encoding: 44 44 81
Width: 108
Flags: HW
LayerCount: 4
Fore
SplineSet
6 76 m 25
 2 -64 l 25
 102 -66 l 25
 104 98 l 25
 6 76 l 25
EndSplineSet
Validated: 9
EndChar

StartChar: hyphen
Encoding: 45 45 82
Width: 484
Flags: HW
LayerCount: 4
Fore
SplineSet
0 324 m 1
 488 312 l 25
 484 196 l 1
 -4 202 l 1
 0 324 l 1
EndSplineSet
Validated: 1
EndChar

StartChar: period
Encoding: 46 46 83
Width: 200
Flags: HW
LayerCount: 4
Fore
SplineSet
34 164 m 25
 14 130 l 1
 10 106 l 25
 10 106 10 100 10 88 c 8
 10 76 10 78 10 76 c 8
 10 74 10 46 10 46 c 1
 18 20 l 1
 50 6 l 1
 76 4 l 1
 100 2 l 25
 128 2 l 25
 156 12 l 25
 182 26 l 25
 202 54 l 25
 202 84 l 25
 198 122 l 25
 180 154 l 25
 152 180 l 25
 126 182 l 25
 86 180 l 25
 62 174 l 1
 34 164 l 25
EndSplineSet
Validated: 9
EndChar

StartChar: slash
Encoding: 47 47 84
Width: 798
Flags: HW
LayerCount: 4
Fore
SplineSet
16 -4 m 25
 0 56 l 25
 6 82 l 25
 30 138 l 1
 664 774 l 1
 714 796 l 25
 736 796 l 25
 742 800 l 1
 742 800 760 788 762 788 c 8
 764 788 778 760 778 760 c 25
 792 748 l 25
 792 712 l 25
 792 692 l 25
 792 692 792 686 792 678 c 8
 792 670 784 654 784 654 c 1
 158 46 l 1
 136 30 l 25
 124 12 l 25
 124 12 114 6 110 6 c 8
 106 6 84 2 84 2 c 25
 84 2 70 0 68 0 c 8
 66 0 50 -6 50 -6 c 25
 38 -6 l 25
 16 -4 l 25
EndSplineSet
Validated: 1
EndChar

StartChar: underscore
Encoding: 95 95 85
Width: 603
Flags: HW
LayerCount: 4
Fore
SplineSet
0 135 m 5
 0 135 1 -1 1 0 c 0
 1 1 602 0 602 0 c 1
 604 134 l 1
 0 135 l 5
EndSplineSet
Validated: 41
EndChar

StartChar: grave
Encoding: 96 96 86
Width: 190
Flags: HW
LayerCount: 4
Fore
SplineSet
0 796 m 1
 100 620 l 1
 184 620 l 1
 86 796 l 25
 0 796 l 1
EndSplineSet
Validated: 9
EndChar

StartChar: at
Encoding: 64 64 87
Width: 1000
Flags: H
LayerCount: 4
Fore
SplineSet
500 246 m 29
 500 184 l 25
 476 164 l 25
 430 168 l 25
 406 172 l 25
 394 194 l 25
 394 218 l 25
 394 236 l 25
 406 274 l 25
 428 278 l 25
 444 286 l 25
 464 286 l 25
 480 278 l 25
 496 266 l 25
 500 246 l 29
630 28 m 25
 630 62 l 25
 598 68 l 25
 572 70 l 25
 472 66 l 1
 426 66 l 25
 398 66 l 1
 318 90 l 25
 296 126 l 25
 278 182 l 25
 272 230 l 25
 276 266 l 25
 290 324 l 1
 326 384 l 1
 382 412 l 1
 444 416 l 1
 480 408 l 1
 514 404 l 1
 546 396 l 1
 562 380 l 1
 582 376 l 1
 578 344 l 1
 580 320 l 1
 576 304 l 1
 562 290 l 1
 522 334 l 25
 494 344 l 25
 454 344 l 25
 420 344 l 25
 390 334 l 25
 360 304 l 25
 344 276 l 25
 340 262 l 25
 332 220 l 25
 332 190 l 25
 340 150 l 25
 346 136 l 25
 372 124 l 25
 404 108 l 25
 438 108 l 25
 470 108 l 25
 510 108 l 25
 548 120 l 25
 554 94 l 25
 566 94 l 25
 588 94 l 25
 608 96 l 1
 640 128 l 1
 644 168 l 1
 652 218 l 1
 660 260 l 1
 664 316 l 1
 664 362 l 1
 644 416 l 1
 622 440 l 25
 576 452 l 25
 576 452 544 462 540 462 c 8
 536 462 498 472 498 472 c 25
 470 472 l 25
 440 472 l 25
 408 464 l 1
 378 464 l 1
 338 446 l 1
 308 428 l 1
 308 428 278 408 278 402 c 0
 278 396 264 360 264 360 c 25
 248 326 l 25
 232 284 l 25
 232 284 232 246 232 242 c 8
 232 238 228 202 228 202 c 25
 228 168 l 25
 228 168 238 140 238 138 c 8
 238 136 246 106 246 106 c 25
 264 72 l 25
 292 50 l 1
 340 22 l 1
 396 0 l 1
 430 0 l 1
 430 0 556 -4 556 4 c 0
 556 12 602 -4 602 4 c 0
 602 12 619 19 630 28 c 25
EndSplineSet
Validated: 41
EndChar

StartChar: colon
Encoding: 58 58 88
Width: 176
Flags: HW
LayerCount: 4
Fore
SplineSet
66 240 m 1024
66 240 m 25
 84 230 l 25
 100 230 l 25
 120 230 l 25
 138 238 l 25
 170 270 l 25
 176 300 l 25
 178 342 l 25
 168 354 l 25
 168 354 158 366 156 366 c 8
 154 366 134 374 134 374 c 25
 120 376 l 25
 100 376 l 25
 72 378 l 25
 72 378 60 378 56 378 c 8
 52 378 32 354 32 354 c 25
 32 354 20 354 16 334 c 8
 12 314 12 314 12 314 c 25
 10 290 l 25
 14 250 l 25
 32 246 l 25
 48 240 l 25
 66 240 l 25
36 126 m 25
 16 98 l 25
 16 98 10 76 10 72 c 8
 10 68 10 46 10 44 c 8
 10 42 28 30 28 28 c 8
 28 26 38 16 38 16 c 25
 38 16 60 -8 60 0 c 8
 60 8 76 -6 76 0 c 8
 76 6 104 10 104 10 c 25
 126 10 l 25
 156 26 l 25
 156 26 164 42 164 44 c 8
 164 46 170 72 170 72 c 25
 170 98 l 25
 154 130 l 25
 130 142 l 25
 108 148 l 25
 94 148 l 25
 80 148 l 25
 66 148 l 25
 52 144 l 25
 36 126 l 25
EndSplineSet
Validated: 9
EndChar

StartChar: semicolon
Encoding: 59 59 89
Width: 180
Flags: HW
LayerCount: 4
Fore
SplineSet
46 190 m 1
 92 184 l 25
 120 180 l 25
 142 182 l 25
 160 194 l 25
 176 224 l 25
 182 266 l 25
 174 306 l 1
 172 328 l 25
 156 344 l 25
 140 348 l 25
 140 348 126 350 124 350 c 8
 122 350 110 350 106 350 c 8
 102 350 74 350 74 350 c 1
 50 350 l 25
 36 340 l 25
 20 322 l 25
 12 302 l 25
 12 302 4 284 4 282 c 8
 4 280 -4 256 -4 256 c 25
 -4 226 l 25
 14 210 l 25
 46 190 l 1
22 62 m 1
 48 -86 l 1
 178 -84 l 1
 108 58 l 1
 22 62 l 1
EndSplineSet
Validated: 9
EndChar

StartChar: less
Encoding: 60 60 90
Width: 564
Flags: HW
LayerCount: 4
Fore
SplineSet
4 386 m 1
 562 596 l 1
 564 452 l 1
 160 342 l 1
 564 184 l 1
 564 56 l 1
 0 280 l 1
 4 386 l 1
EndSplineSet
Validated: 1
EndChar

StartChar: equal
Encoding: 61 61 91
Width: 634
Flags: HW
LayerCount: 4
Fore
SplineSet
6 274 m 1
 638 256 l 25
 638 144 l 1
 6 158 l 1
 6 274 l 1
10 348 m 1
 638 338 l 1
 636 456 l 1
 10 460 l 1
 10 348 l 1
EndSplineSet
Validated: 9
EndChar

StartChar: greater
Encoding: 62 62 92
Width: 776
Flags: HW
LayerCount: 4
Fore
SplineSet
6 576 m 1
 4 420 l 25
 594 286 l 25
 2 170 l 25
 0 36 l 25
 776 206 l 1
 776 344 l 25
 6 576 l 1
EndSplineSet
Validated: 9
EndChar

StartChar: question
Encoding: 63 63 93
Width: 486
Flags: HW
LayerCount: 4
Fore
SplineSet
194 112 m 29
 170 90 l 29
 150 68 l 29
 152 54 l 29
 164 26 l 29
 178 12 l 29
 200 0 l 29
 218 -2 l 29
 244 -2 l 29
 282 -2 l 29
 308 18 l 29
 310 42 l 29
 310 60 l 29
 302 94 l 29
 286 112 l 29
 286 112 272 130 270 130 c 12
 268 130 240 130 240 130 c 29
 206 128 l 29
 194 112 l 29
4 552 m 17
 6.31587462633 605.222991172 44.9303286259 631.603341871 70 668 c 9
 132 702 l 25
 198 734 l 25
 256 736 l 25
 302 732 l 25
 372 716 l 25
 418 682 l 25
 454 646 l 1
 454 646 486 604 486 598 c 0
 486 592 486 542 486 542 c 1
 486 542 482.712568346 500.801291696 474 481 c 0
 463 456 428 429 428 429 c 1
 428 429 384 397 384 395 c 0
 384 393 329 361 329 361 c 1
 303 333 l 25
 279 297 l 25
 279 297 277 241 277 237 c 8
 277 233 277 197 277 197 c 25
 193 197 l 25
 175 321 l 25
 187 373 l 25
 225 431 l 25
 273 457 l 1
 346 507 l 1
 366 556 l 1
 356 584 l 25
 328 618 l 25
 294 638 l 25
 256 642 l 25
 202 646 l 1
 166 631 l 25
 144 597 l 25
 144 597 136 585 126 565 c 0
 116 545 100 525 100 525 c 1
 78 514 l 1
 36 514 l 25
 8 536 l 25
 4 552 l 17
EndSplineSet
Validated: 9
EndChar
